<?xml version="1.0" encoding="UTF-8"?><svg id="uuid-e0ee2788-d175-4850-b5ed-8e8739bcf451" xmlns="http://www.w3.org/2000/svg" width="396.71581" height="175" viewBox="0 0 396.71581 175"><defs><style>.uuid-2f5bda25-b96c-4c5d-972c-ad1a363bfae9{fill:none;}.uuid-373fc21f-c368-407e-8cc9-d5e3f13fa5e7{fill:#c7c7c7;}.uuid-b8ec84e8-6355-45d8-a651-009d04426351{fill:#f56e6e;}.uuid-acb7d0f7-9c88-47b0-ae66-329e60abf08f{fill:#f2f2f2;}.uuid-fbcdfe47-508b-44f1-a661-a8cafee3cb67{fill:#e0e0e0;}.uuid-0bf90b51-a53d-4a28-a7d7-e6e42ecb080f{fill:#e00;}</style></defs><path class="uuid-acb7d0f7-9c88-47b0-ae66-329e60abf08f" d="M60,.00003v174.99995h211.03591V.00003H60ZM239.52597,143.49004H91.50994V31.50998h148.01603v111.98006Z"/><path d="M213.80933,79.80915c.18919.87326.27015,1.76648.24107,2.65953,0,11.57128-14.08305,13.58536-23.80355,13.58536-37.83216,0-66.0527-23.51582-66.0527-30.68565-.02407-.50879.03369-1.01814.17108-1.50862l-2.85394,7.04541c-.77775,1.80227-1.1774,3.74495-1.17424,5.70787,0,14.08305,31.88322,35.36704,68.23009,35.36704,16.09714,0,28.32941-6.03448,28.32941-16.92922,0-.83985,0-1.50862-1.33754-7.87749l-1.74969-7.36424Z"/><path class="uuid-0bf90b51-a53d-4a28-a7d7-e6e42ecb080f" d="M190.24685,96.05403c9.72049,0,23.80355-2.00631,23.80355-13.57758.02908-.89304-.05188-1.78627-.24107-2.65953l-5.79341-25.16441c-1.34531-5.53679-2.51177-8.04857-12.24005-12.90882-7.54311-3.86487-23.97463-10.23374-28.83487-10.23374-4.53364,0-5.8634,5.8634-11.22912,5.8634-5.19463,0-9.05172-4.35478-13.91197-4.35478-4.66584,0-7.71418,3.18055-10.06265,9.72049,0,0-6.53217,18.44561-7.37202,21.12069-.13739.49048-.19515.99983-.17108,1.50862,0,7.16984,28.22054,30.68566,66.0527,30.68566M215.55902,87.17339c1.33754,6.36887,1.33754,7.03764,1.33754,7.87749,0,10.88695-12.23227,16.92921-28.32941,16.92921-36.37798-.00777-68.23009-21.29177-68.23009-35.36704-.0021-1.9603.39753-3.90024,1.17423-5.7001-13.07212.661-30.00133,3.00947-30.00133,17.92459,0,24.48009,57.99636,54.6525,103.93152,54.6525,35.20374,0,44.08439-15.92605,44.08439-28.50049,0-9.89158-8.55403-21.12069-23.96684-27.82394"/><circle class="uuid-b8ec84e8-6355-45d8-a651-009d04426351" cx="196.02205" cy="127.73507" r="15.75498"/><circle class="uuid-fbcdfe47-508b-44f1-a661-a8cafee3cb67" cx="196.02205" cy="159.24502" r="15.75498"/><circle class="uuid-fbcdfe47-508b-44f1-a661-a8cafee3cb67" cx="196.02205" cy="15.75498" r="15.75498"/><circle class="uuid-fbcdfe47-508b-44f1-a661-a8cafee3cb67" cx="255.28084" cy="127.73507" r="15.75498"/><circle class="uuid-fbcdfe47-508b-44f1-a661-a8cafee3cb67" cx="75.75499" cy="127.73507" r="15.75498"/><path class="uuid-373fc21f-c368-407e-8cc9-d5e3f13fa5e7" d="M61.00002,112.2305h-1c-.1377,0-.25-.1123-.25-.25s.1123-.25.25-.25h1c.1377,0,.25.1123.25.25s-.1123.25-.25.25Z"/><path class="uuid-373fc21f-c368-407e-8cc9-d5e3f13fa5e7" d="M267.02053,112.2305h-2.00977c-.1377,0-.25-.1123-.25-.25s.1123-.25.25-.25h2.00977c.1377,0,.25.1123.25.25s-.1123.25-.25.25ZM261.99612,112.2305h-2.01074c-.1377,0-.25-.1123-.25-.25s.1123-.25.25-.25h2.01074c.1377,0,.25.1123.25.25s-.1123.25-.25.25ZM256.97073,112.2305h-2.00977c-.1377,0-.25-.1123-.25-.25s.1123-.25.25-.25h2.00977c.1377,0,.25.1123.25.25s-.1123.25-.25.25ZM251.94631,112.2305h-2.01074c-.1377,0-.25-.1123-.25-.25s.1123-.25.25-.25h2.01074c.1377,0,.25.1123.25.25s-.1123.25-.25.25ZM246.92092,112.2305h-2.00977c-.1377,0-.25-.1123-.25-.25s.1123-.25.25-.25h2.00977c.1377,0,.25.1123.25.25s-.1123.25-.25.25ZM241.89651,112.2305h-2.01074c-.1377,0-.25-.1123-.25-.25s.1123-.25.25-.25h2.01074c.1377,0,.25.1123.25.25s-.1123.25-.25.25ZM236.87112,112.2305h-2.00977c-.1377,0-.25-.1123-.25-.25s.1123-.25.25-.25h2.00977c.1377,0,.25.1123.25.25s-.1123.25-.25.25ZM231.8467,112.2305h-2.01074c-.1377,0-.25-.1123-.25-.25s.1123-.25.25-.25h2.01074c.1377,0,.25.1123.25.25s-.1123.25-.25.25ZM226.82131,112.2305h-2.00977c-.1377,0-.25-.1123-.25-.25s.1123-.25.25-.25h2.00977c.1377,0,.25.1123.25.25s-.1123.25-.25.25ZM221.7969,112.2305h-2.01074c-.1377,0-.25-.1123-.25-.25s.1123-.25.25-.25h2.01074c.1377,0,.25.1123.25.25s-.1123.25-.25.25ZM216.77151,112.2305h-2.00977c-.1377,0-.25-.1123-.25-.25s.1123-.25.25-.25h2.00977c.1377,0,.25.1123.25.25s-.1123.25-.25.25ZM211.74709,112.2305h-2.01074c-.1377,0-.25-.1123-.25-.25s.1123-.25.25-.25h2.01074c.1377,0,.25.1123.25.25s-.1123.25-.25.25ZM206.7217,112.2305h-2.00977c-.1377,0-.25-.1123-.25-.25s.1123-.25.25-.25h2.00977c.1377,0,.25.1123.25.25s-.1123.25-.25.25ZM201.69729,112.2305h-2.01074c-.1377,0-.25-.1123-.25-.25s.1123-.25.25-.25h2.01074c.1377,0,.25.1123.25.25s-.1123.25-.25.25ZM196.6719,112.2305h-2.00977c-.1377,0-.25-.1123-.25-.25s.1123-.25.25-.25h2.00977c.1377,0,.25.1123.25.25s-.1123.25-.25.25ZM191.64748,112.2305h-2.01074c-.1377,0-.25-.1123-.25-.25s.1123-.25.25-.25h2.01074c.1377,0,.25.1123.25.25s-.1123.25-.25.25ZM186.62209,112.2305h-2.00977c-.1377,0-.25-.1123-.25-.25s.1123-.25.25-.25h2.00977c.1377,0,.25.1123.25.25s-.1123.25-.25.25ZM181.59768,112.2305h-2.01074c-.1377,0-.25-.1123-.25-.25s.1123-.25.25-.25h2.01074c.1377,0,.25.1123.25.25s-.1123.25-.25.25ZM176.57229,112.2305h-2.00977c-.1377,0-.25-.1123-.25-.25s.1123-.25.25-.25h2.00977c.1377,0,.25.1123.25.25s-.1123.25-.25.25ZM171.54787,112.2305h-2.01074c-.1377,0-.25-.1123-.25-.25s.1123-.25.25-.25h2.01074c.1377,0,.25.1123.25.25s-.1123.25-.25.25ZM166.52248,112.2305h-2.00977c-.1377,0-.25-.1123-.25-.25s.1123-.25.25-.25h2.00977c.1377,0,.25.1123.25.25s-.1123.25-.25.25ZM161.49807,112.2305h-2.01074c-.1377,0-.25-.1123-.25-.25s.1123-.25.25-.25h2.01074c.1377,0,.25.1123.25.25s-.1123.25-.25.25ZM156.47268,112.2305h-2.00977c-.1377,0-.25-.1123-.25-.25s.1123-.25.25-.25h2.00977c.1377,0,.25.1123.25.25s-.1123.25-.25.25ZM151.44826,112.2305h-2.01074c-.1377,0-.25-.1123-.25-.25s.1123-.25.25-.25h2.01074c.1377,0,.25.1123.25.25s-.1123.25-.25.25ZM146.42287,112.2305h-2.00977c-.1377,0-.25-.1123-.25-.25s.1123-.25.25-.25h2.00977c.1377,0,.25.1123.25.25s-.1123.25-.25.25ZM141.39846,112.2305h-2.01074c-.1377,0-.25-.1123-.25-.25s.1123-.25.25-.25h2.01074c.1377,0,.25.1123.25.25s-.1123.25-.25.25ZM136.37307,112.2305h-2.00977c-.1377,0-.25-.1123-.25-.25s.1123-.25.25-.25h2.00977c.1377,0,.25.1123.25.25s-.1123.25-.25.25ZM131.34865,112.2305h-2.01074c-.1377,0-.25-.1123-.25-.25s.1123-.25.25-.25h2.01074c.1377,0,.25.1123.25.25s-.1123.25-.25.25ZM126.32326,112.2305h-2.00977c-.1377,0-.25-.1123-.25-.25s.1123-.25.25-.25h2.00977c.1377,0,.25.1123.25.25s-.1123.25-.25.25ZM121.29885,112.2305h-2.01074c-.1377,0-.25-.1123-.25-.25s.1123-.25.25-.25h2.01074c.1377,0,.25.1123.25.25s-.1123.25-.25.25ZM116.27346,112.2305h-2.00977c-.1377,0-.25-.1123-.25-.25s.1123-.25.25-.25h2.00977c.1377,0,.25.1123.25.25s-.1123.25-.25.25ZM111.24905,112.2305h-2.01074c-.1377,0-.25-.1123-.25-.25s.1123-.25.25-.25h2.01074c.1377,0,.25.1123.25.25s-.1123.25-.25.25ZM106.22365,112.2305h-2.00977c-.1377,0-.25-.1123-.25-.25s.1123-.25.25-.25h2.00977c.1377,0,.25.1123.25.25s-.1123.25-.25.25ZM101.19924,112.2305h-2.01074c-.1377,0-.25-.1123-.25-.25s.1123-.25.25-.25h2.01074c.1377,0,.25.1123.25.25s-.1123.25-.25.25ZM96.17385,112.2305h-2.00977c-.1377,0-.25-.1123-.25-.25s.1123-.25.25-.25h2.00977c.1377,0,.25.1123.25.25s-.1123.25-.25.25ZM91.14944,112.2305h-2.01074c-.1377,0-.25-.1123-.25-.25s.1123-.25.25-.25h2.01074c.1377,0,.25.1123.25.25s-.1123.25-.25.25ZM86.12405,112.2305h-2.00977c-.1377,0-.25-.1123-.25-.25s.1123-.25.25-.25h2.00977c.1377,0,.25.1123.25.25s-.1123.25-.25.25ZM81.09963,112.2305h-2.01074c-.1377,0-.25-.1123-.25-.25s.1123-.25.25-.25h2.01074c.1377,0,.25.1123.25.25s-.1123.25-.25.25ZM76.07424,112.2305h-2.00977c-.1377,0-.25-.1123-.25-.25s.1123-.25.25-.25h2.00977c.1377,0,.25.1123.25.25s-.1123.25-.25.25ZM71.04983,112.2305h-2.01074c-.1377,0-.25-.1123-.25-.25s.1123-.25.25-.25h2.01074c.1377,0,.25.1123.25.25s-.1123.25-.25.25ZM66.02444,112.2305h-2.00977c-.1377,0-.25-.1123-.25-.25s.1123-.25.25-.25h2.00977c.1377,0,.25.1123.25.25s-.1123.25-.25.25Z"/><path class="uuid-373fc21f-c368-407e-8cc9-d5e3f13fa5e7" d="M271.03615,112.2305h-1c-.1377,0-.25-.1123-.25-.25s.1123-.25.25-.25h1c.1377,0,.25.1123.25.25s-.1123.25-.25.25Z"/><path class="uuid-373fc21f-c368-407e-8cc9-d5e3f13fa5e7" d="M61.00002,143.74026h-1c-.1377,0-.25-.1123-.25-.25s.1123-.25.25-.25h1c.1377,0,.25.1123.25.25s-.1123.25-.25.25Z"/><path class="uuid-373fc21f-c368-407e-8cc9-d5e3f13fa5e7" d="M267.02053,143.74026h-2.00977c-.1377,0-.25-.1123-.25-.25s.1123-.25.25-.25h2.00977c.1377,0,.25.1123.25.25s-.1123.25-.25.25ZM261.99612,143.74026h-2.01074c-.1377,0-.25-.1123-.25-.25s.1123-.25.25-.25h2.01074c.1377,0,.25.1123.25.25s-.1123.25-.25.25ZM256.97073,143.74026h-2.00977c-.1377,0-.25-.1123-.25-.25s.1123-.25.25-.25h2.00977c.1377,0,.25.1123.25.25s-.1123.25-.25.25ZM251.94631,143.74026h-2.01074c-.1377,0-.25-.1123-.25-.25s.1123-.25.25-.25h2.01074c.1377,0,.25.1123.25.25s-.1123.25-.25.25ZM246.92092,143.74026h-2.00977c-.1377,0-.25-.1123-.25-.25s.1123-.25.25-.25h2.00977c.1377,0,.25.1123.25.25s-.1123.25-.25.25ZM241.89651,143.74026h-2.01074c-.1377,0-.25-.1123-.25-.25s.1123-.25.25-.25h2.01074c.1377,0,.25.1123.25.25s-.1123.25-.25.25ZM236.87112,143.74026h-2.00977c-.1377,0-.25-.1123-.25-.25s.1123-.25.25-.25h2.00977c.1377,0,.25.1123.25.25s-.1123.25-.25.25ZM231.8467,143.74026h-2.01074c-.1377,0-.25-.1123-.25-.25s.1123-.25.25-.25h2.01074c.1377,0,.25.1123.25.25s-.1123.25-.25.25ZM226.82131,143.74026h-2.00977c-.1377,0-.25-.1123-.25-.25s.1123-.25.25-.25h2.00977c.1377,0,.25.1123.25.25s-.1123.25-.25.25ZM221.7969,143.74026h-2.01074c-.1377,0-.25-.1123-.25-.25s.1123-.25.25-.25h2.01074c.1377,0,.25.1123.25.25s-.1123.25-.25.25ZM216.77151,143.74026h-2.00977c-.1377,0-.25-.1123-.25-.25s.1123-.25.25-.25h2.00977c.1377,0,.25.1123.25.25s-.1123.25-.25.25ZM211.74709,143.74026h-2.01074c-.1377,0-.25-.1123-.25-.25s.1123-.25.25-.25h2.01074c.1377,0,.25.1123.25.25s-.1123.25-.25.25ZM206.7217,143.74026h-2.00977c-.1377,0-.25-.1123-.25-.25s.1123-.25.25-.25h2.00977c.1377,0,.25.1123.25.25s-.1123.25-.25.25ZM201.69729,143.74026h-2.01074c-.1377,0-.25-.1123-.25-.25s.1123-.25.25-.25h2.01074c.1377,0,.25.1123.25.25s-.1123.25-.25.25ZM196.6719,143.74026h-2.00977c-.1377,0-.25-.1123-.25-.25s.1123-.25.25-.25h2.00977c.1377,0,.25.1123.25.25s-.1123.25-.25.25ZM191.64748,143.74026h-2.01074c-.1377,0-.25-.1123-.25-.25s.1123-.25.25-.25h2.01074c.1377,0,.25.1123.25.25s-.1123.25-.25.25ZM186.62209,143.74026h-2.00977c-.1377,0-.25-.1123-.25-.25s.1123-.25.25-.25h2.00977c.1377,0,.25.1123.25.25s-.1123.25-.25.25ZM181.59768,143.74026h-2.01074c-.1377,0-.25-.1123-.25-.25s.1123-.25.25-.25h2.01074c.1377,0,.25.1123.25.25s-.1123.25-.25.25ZM176.57229,143.74026h-2.00977c-.1377,0-.25-.1123-.25-.25s.1123-.25.25-.25h2.00977c.1377,0,.25.1123.25.25s-.1123.25-.25.25ZM171.54787,143.74026h-2.01074c-.1377,0-.25-.1123-.25-.25s.1123-.25.25-.25h2.01074c.1377,0,.25.1123.25.25s-.1123.25-.25.25ZM166.52248,143.74026h-2.00977c-.1377,0-.25-.1123-.25-.25s.1123-.25.25-.25h2.00977c.1377,0,.25.1123.25.25s-.1123.25-.25.25ZM161.49807,143.74026h-2.01074c-.1377,0-.25-.1123-.25-.25s.1123-.25.25-.25h2.01074c.1377,0,.25.1123.25.25s-.1123.25-.25.25ZM156.47268,143.74026h-2.00977c-.1377,0-.25-.1123-.25-.25s.1123-.25.25-.25h2.00977c.1377,0,.25.1123.25.25s-.1123.25-.25.25ZM151.44826,143.74026h-2.01074c-.1377,0-.25-.1123-.25-.25s.1123-.25.25-.25h2.01074c.1377,0,.25.1123.25.25s-.1123.25-.25.25ZM146.42287,143.74026h-2.00977c-.1377,0-.25-.1123-.25-.25s.1123-.25.25-.25h2.00977c.1377,0,.25.1123.25.25s-.1123.25-.25.25ZM141.39846,143.74026h-2.01074c-.1377,0-.25-.1123-.25-.25s.1123-.25.25-.25h2.01074c.1377,0,.25.1123.25.25s-.1123.25-.25.25ZM136.37307,143.74026h-2.00977c-.1377,0-.25-.1123-.25-.25s.1123-.25.25-.25h2.00977c.1377,0,.25.1123.25.25s-.1123.25-.25.25ZM131.34865,143.74026h-2.01074c-.1377,0-.25-.1123-.25-.25s.1123-.25.25-.25h2.01074c.1377,0,.25.1123.25.25s-.1123.25-.25.25ZM126.32326,143.74026h-2.00977c-.1377,0-.25-.1123-.25-.25s.1123-.25.25-.25h2.00977c.1377,0,.25.1123.25.25s-.1123.25-.25.25ZM121.29885,143.74026h-2.01074c-.1377,0-.25-.1123-.25-.25s.1123-.25.25-.25h2.01074c.1377,0,.25.1123.25.25s-.1123.25-.25.25ZM116.27346,143.74026h-2.00977c-.1377,0-.25-.1123-.25-.25s.1123-.25.25-.25h2.00977c.1377,0,.25.1123.25.25s-.1123.25-.25.25ZM111.24905,143.74026h-2.01074c-.1377,0-.25-.1123-.25-.25s.1123-.25.25-.25h2.01074c.1377,0,.25.1123.25.25s-.1123.25-.25.25ZM106.22365,143.74026h-2.00977c-.1377,0-.25-.1123-.25-.25s.1123-.25.25-.25h2.00977c.1377,0,.25.1123.25.25s-.1123.25-.25.25ZM101.19924,143.74026h-2.01074c-.1377,0-.25-.1123-.25-.25s.1123-.25.25-.25h2.01074c.1377,0,.25.1123.25.25s-.1123.25-.25.25ZM96.17385,143.74026h-2.00977c-.1377,0-.25-.1123-.25-.25s.1123-.25.25-.25h2.00977c.1377,0,.25.1123.25.25s-.1123.25-.25.25ZM91.14944,143.74026h-2.01074c-.1377,0-.25-.1123-.25-.25s.1123-.25.25-.25h2.01074c.1377,0,.25.1123.25.25s-.1123.25-.25.25ZM86.12405,143.74026h-2.00977c-.1377,0-.25-.1123-.25-.25s.1123-.25.25-.25h2.00977c.1377,0,.25.1123.25.25s-.1123.25-.25.25ZM81.09963,143.74026h-2.01074c-.1377,0-.25-.1123-.25-.25s.1123-.25.25-.25h2.01074c.1377,0,.25.1123.25.25s-.1123.25-.25.25ZM76.07424,143.74026h-2.00977c-.1377,0-.25-.1123-.25-.25s.1123-.25.25-.25h2.00977c.1377,0,.25.1123.25.25s-.1123.25-.25.25ZM71.04983,143.74026h-2.01074c-.1377,0-.25-.1123-.25-.25s.1123-.25.25-.25h2.01074c.1377,0,.25.1123.25.25s-.1123.25-.25.25ZM66.02444,143.74026h-2.00977c-.1377,0-.25-.1123-.25-.25s.1123-.25.25-.25h2.00977c.1377,0,.25.1123.25.25s-.1123.25-.25.25Z"/><path class="uuid-373fc21f-c368-407e-8cc9-d5e3f13fa5e7" d="M271.03615,143.74026h-1c-.1377,0-.25-.1123-.25-.25s.1123-.25.25-.25h1c.1377,0,.25.1123.25.25s-.1123.25-.25.25Z"/><path class="uuid-373fc21f-c368-407e-8cc9-d5e3f13fa5e7" d="M180.26662,1.25003c-.1377,0-.25-.1123-.25-.25V.00003c0-.1377.1123-.25.25-.25s.25.1123.25.25v1c0,.1377-.1123.25-.25.25Z"/><path class="uuid-373fc21f-c368-407e-8cc9-d5e3f13fa5e7" d="M180.26662,171.25003c-.1377,0-.25-.1123-.25-.25v-2c0-.1377.1123-.25.25-.25s.25.1123.25.25v2c0,.1377-.1123.25-.25.25ZM180.26662,166.25003c-.1377,0-.25-.1123-.25-.25v-2c0-.1377.1123-.25.25-.25s.25.1123.25.25v2c0,.1377-.1123.25-.25.25ZM180.26662,161.25003c-.1377,0-.25-.1123-.25-.25v-2c0-.1377.1123-.25.25-.25s.25.1123.25.25v2c0,.1377-.1123.25-.25.25ZM180.26662,156.25003c-.1377,0-.25-.1123-.25-.25v-2c0-.1377.1123-.25.25-.25s.25.1123.25.25v2c0,.1377-.1123.25-.25.25ZM180.26662,151.25003c-.1377,0-.25-.1123-.25-.25v-2c0-.1377.1123-.25.25-.25s.25.1123.25.25v2c0,.1377-.1123.25-.25.25ZM180.26662,146.25003c-.1377,0-.25-.1123-.25-.25v-2c0-.1377.1123-.25.25-.25s.25.1123.25.25v2c0,.1377-.1123.25-.25.25ZM180.26662,141.25003c-.1377,0-.25-.1123-.25-.25v-2c0-.1377.1123-.25.25-.25s.25.1123.25.25v2c0,.1377-.1123.25-.25.25ZM180.26662,136.25003c-.1377,0-.25-.1123-.25-.25v-2c0-.1377.1123-.25.25-.25s.25.1123.25.25v2c0,.1377-.1123.25-.25.25ZM180.26662,131.25003c-.1377,0-.25-.1123-.25-.25v-2c0-.1377.1123-.25.25-.25s.25.1123.25.25v2c0,.1377-.1123.25-.25.25ZM180.26662,126.25003c-.1377,0-.25-.1123-.25-.25v-2c0-.1377.1123-.25.25-.25s.25.1123.25.25v2c0,.1377-.1123.25-.25.25ZM180.26662,121.25003c-.1377,0-.25-.1123-.25-.25v-2c0-.1377.1123-.25.25-.25s.25.1123.25.25v2c0,.1377-.1123.25-.25.25ZM180.26662,116.25003c-.1377,0-.25-.1123-.25-.25v-2c0-.1377.1123-.25.25-.25s.25.1123.25.25v2c0,.1377-.1123.25-.25.25ZM180.26662,111.25003c-.1377,0-.25-.1123-.25-.25v-2c0-.1377.1123-.25.25-.25s.25.1123.25.25v2c0,.1377-.1123.25-.25.25ZM180.26662,106.25003c-.1377,0-.25-.1123-.25-.25v-2c0-.1377.1123-.25.25-.25s.25.1123.25.25v2c0,.1377-.1123.25-.25.25ZM180.26662,101.25003c-.1377,0-.25-.1123-.25-.25v-2c0-.1377.1123-.25.25-.25s.25.1123.25.25v2c0,.1377-.1123.25-.25.25ZM180.26662,96.25003c-.1377,0-.25-.1123-.25-.25v-2c0-.1377.1123-.25.25-.25s.25.1123.25.25v2c0,.1377-.1123.25-.25.25ZM180.26662,91.25003c-.1377,0-.25-.1123-.25-.25v-2c0-.1377.1123-.25.25-.25s.25.1123.25.25v2c0,.1377-.1123.25-.25.25ZM180.26662,86.25003c-.1377,0-.25-.1123-.25-.25v-2c0-.1377.1123-.25.25-.25s.25.1123.25.25v2c0,.1377-.1123.25-.25.25ZM180.26662,81.25003c-.1377,0-.25-.1123-.25-.25v-2c0-.1377.1123-.25.25-.25s.25.1123.25.25v2c0,.1377-.1123.25-.25.25ZM180.26662,76.25003c-.1377,0-.25-.1123-.25-.25v-2c0-.1377.1123-.25.25-.25s.25.1123.25.25v2c0,.1377-.1123.25-.25.25ZM180.26662,71.25003c-.1377,0-.25-.1123-.25-.25v-2c0-.1377.1123-.25.25-.25s.25.1123.25.25v2c0,.1377-.1123.25-.25.25ZM180.26662,66.25003c-.1377,0-.25-.1123-.25-.25v-2c0-.1377.1123-.25.25-.25s.25.1123.25.25v2c0,.1377-.1123.25-.25.25ZM180.26662,61.25003c-.1377,0-.25-.1123-.25-.25v-2c0-.1377.1123-.25.25-.25s.25.1123.25.25v2c0,.1377-.1123.25-.25.25ZM180.26662,56.25003c-.1377,0-.25-.1123-.25-.25v-2c0-.1377.1123-.25.25-.25s.25.1123.25.25v2c0,.1377-.1123.25-.25.25ZM180.26662,51.25003c-.1377,0-.25-.1123-.25-.25v-2c0-.1377.1123-.25.25-.25s.25.1123.25.25v2c0,.1377-.1123.25-.25.25ZM180.26662,46.25003c-.1377,0-.25-.1123-.25-.25v-2c0-.1377.1123-.25.25-.25s.25.1123.25.25v2c0,.1377-.1123.25-.25.25ZM180.26662,41.25003c-.1377,0-.25-.1123-.25-.25v-2c0-.1377.1123-.25.25-.25s.25.1123.25.25v2c0,.1377-.1123.25-.25.25ZM180.26662,36.25003c-.1377,0-.25-.1123-.25-.25v-2c0-.1377.1123-.25.25-.25s.25.1123.25.25v2c0,.1377-.1123.25-.25.25ZM180.26662,31.25003c-.1377,0-.25-.1123-.25-.25v-2c0-.1377.1123-.25.25-.25s.25.1123.25.25v2c0,.1377-.1123.25-.25.25ZM180.26662,26.25003c-.1377,0-.25-.1123-.25-.25v-2c0-.1377.1123-.25.25-.25s.25.1123.25.25v2c0,.1377-.1123.25-.25.25ZM180.26662,21.25003c-.1377,0-.25-.1123-.25-.25v-2c0-.1377.1123-.25.25-.25s.25.1123.25.25v2c0,.1377-.1123.25-.25.25ZM180.26662,16.25003c-.1377,0-.25-.1123-.25-.25v-2c0-.1377.1123-.25.25-.25s.25.1123.25.25v2c0,.1377-.1123.25-.25.25ZM180.26662,11.25003c-.1377,0-.25-.1123-.25-.25v-2c0-.1377.1123-.25.25-.25s.25.1123.25.25v2c0,.1377-.1123.25-.25.25ZM180.26662,6.25003c-.1377,0-.25-.1123-.25-.25v-2c0-.1377.1123-.25.25-.25s.25.1123.25.25v2c0,.1377-.1123.25-.25.25Z"/><path class="uuid-373fc21f-c368-407e-8cc9-d5e3f13fa5e7" d="M180.26662,175.25003c-.1377,0-.25-.1123-.25-.25v-1c0-.1377.1123-.25.25-.25s.25.1123.25.25v1c0,.1377-.1123.25-.25.25Z"/><path class="uuid-373fc21f-c368-407e-8cc9-d5e3f13fa5e7" d="M211.77737,1.25003c-.1377,0-.25-.1123-.25-.25V.00003c0-.1377.1123-.25.25-.25s.25.1123.25.25v1c0,.1377-.1123.25-.25.25Z"/><path class="uuid-373fc21f-c368-407e-8cc9-d5e3f13fa5e7" d="M211.77737,171.25003c-.1377,0-.25-.1123-.25-.25v-2c0-.1377.1123-.25.25-.25s.25.1123.25.25v2c0,.1377-.1123.25-.25.25ZM211.77737,166.25003c-.1377,0-.25-.1123-.25-.25v-2c0-.1377.1123-.25.25-.25s.25.1123.25.25v2c0,.1377-.1123.25-.25.25ZM211.77737,161.25003c-.1377,0-.25-.1123-.25-.25v-2c0-.1377.1123-.25.25-.25s.25.1123.25.25v2c0,.1377-.1123.25-.25.25ZM211.77737,156.25003c-.1377,0-.25-.1123-.25-.25v-2c0-.1377.1123-.25.25-.25s.25.1123.25.25v2c0,.1377-.1123.25-.25.25ZM211.77737,151.25003c-.1377,0-.25-.1123-.25-.25v-2c0-.1377.1123-.25.25-.25s.25.1123.25.25v2c0,.1377-.1123.25-.25.25ZM211.77737,146.25003c-.1377,0-.25-.1123-.25-.25v-2c0-.1377.1123-.25.25-.25s.25.1123.25.25v2c0,.1377-.1123.25-.25.25ZM211.77737,141.25003c-.1377,0-.25-.1123-.25-.25v-2c0-.1377.1123-.25.25-.25s.25.1123.25.25v2c0,.1377-.1123.25-.25.25ZM211.77737,136.25003c-.1377,0-.25-.1123-.25-.25v-2c0-.1377.1123-.25.25-.25s.25.1123.25.25v2c0,.1377-.1123.25-.25.25ZM211.77737,131.25003c-.1377,0-.25-.1123-.25-.25v-2c0-.1377.1123-.25.25-.25s.25.1123.25.25v2c0,.1377-.1123.25-.25.25ZM211.77737,126.25003c-.1377,0-.25-.1123-.25-.25v-2c0-.1377.1123-.25.25-.25s.25.1123.25.25v2c0,.1377-.1123.25-.25.25ZM211.77737,121.25003c-.1377,0-.25-.1123-.25-.25v-2c0-.1377.1123-.25.25-.25s.25.1123.25.25v2c0,.1377-.1123.25-.25.25ZM211.77737,116.25003c-.1377,0-.25-.1123-.25-.25v-2c0-.1377.1123-.25.25-.25s.25.1123.25.25v2c0,.1377-.1123.25-.25.25ZM211.77737,111.25003c-.1377,0-.25-.1123-.25-.25v-2c0-.1377.1123-.25.25-.25s.25.1123.25.25v2c0,.1377-.1123.25-.25.25ZM211.77737,106.25003c-.1377,0-.25-.1123-.25-.25v-2c0-.1377.1123-.25.25-.25s.25.1123.25.25v2c0,.1377-.1123.25-.25.25ZM211.77737,101.25003c-.1377,0-.25-.1123-.25-.25v-2c0-.1377.1123-.25.25-.25s.25.1123.25.25v2c0,.1377-.1123.25-.25.25ZM211.77737,96.25003c-.1377,0-.25-.1123-.25-.25v-2c0-.1377.1123-.25.25-.25s.25.1123.25.25v2c0,.1377-.1123.25-.25.25ZM211.77737,91.25003c-.1377,0-.25-.1123-.25-.25v-2c0-.1377.1123-.25.25-.25s.25.1123.25.25v2c0,.1377-.1123.25-.25.25ZM211.77737,86.25003c-.1377,0-.25-.1123-.25-.25v-2c0-.1377.1123-.25.25-.25s.25.1123.25.25v2c0,.1377-.1123.25-.25.25ZM211.77737,81.25003c-.1377,0-.25-.1123-.25-.25v-2c0-.1377.1123-.25.25-.25s.25.1123.25.25v2c0,.1377-.1123.25-.25.25ZM211.77737,76.25003c-.1377,0-.25-.1123-.25-.25v-2c0-.1377.1123-.25.25-.25s.25.1123.25.25v2c0,.1377-.1123.25-.25.25ZM211.77737,71.25003c-.1377,0-.25-.1123-.25-.25v-2c0-.1377.1123-.25.25-.25s.25.1123.25.25v2c0,.1377-.1123.25-.25.25ZM211.77737,66.25003c-.1377,0-.25-.1123-.25-.25v-2c0-.1377.1123-.25.25-.25s.25.1123.25.25v2c0,.1377-.1123.25-.25.25ZM211.77737,61.25003c-.1377,0-.25-.1123-.25-.25v-2c0-.1377.1123-.25.25-.25s.25.1123.25.25v2c0,.1377-.1123.25-.25.25ZM211.77737,56.25003c-.1377,0-.25-.1123-.25-.25v-2c0-.1377.1123-.25.25-.25s.25.1123.25.25v2c0,.1377-.1123.25-.25.25ZM211.77737,51.25003c-.1377,0-.25-.1123-.25-.25v-2c0-.1377.1123-.25.25-.25s.25.1123.25.25v2c0,.1377-.1123.25-.25.25ZM211.77737,46.25003c-.1377,0-.25-.1123-.25-.25v-2c0-.1377.1123-.25.25-.25s.25.1123.25.25v2c0,.1377-.1123.25-.25.25ZM211.77737,41.25003c-.1377,0-.25-.1123-.25-.25v-2c0-.1377.1123-.25.25-.25s.25.1123.25.25v2c0,.1377-.1123.25-.25.25ZM211.77737,36.25003c-.1377,0-.25-.1123-.25-.25v-2c0-.1377.1123-.25.25-.25s.25.1123.25.25v2c0,.1377-.1123.25-.25.25ZM211.77737,31.25003c-.1377,0-.25-.1123-.25-.25v-2c0-.1377.1123-.25.25-.25s.25.1123.25.25v2c0,.1377-.1123.25-.25.25ZM211.77737,26.25003c-.1377,0-.25-.1123-.25-.25v-2c0-.1377.1123-.25.25-.25s.25.1123.25.25v2c0,.1377-.1123.25-.25.25ZM211.77737,21.25003c-.1377,0-.25-.1123-.25-.25v-2c0-.1377.1123-.25.25-.25s.25.1123.25.25v2c0,.1377-.1123.25-.25.25ZM211.77737,16.25003c-.1377,0-.25-.1123-.25-.25v-2c0-.1377.1123-.25.25-.25s.25.1123.25.25v2c0,.1377-.1123.25-.25.25ZM211.77737,11.25003c-.1377,0-.25-.1123-.25-.25v-2c0-.1377.1123-.25.25-.25s.25.1123.25.25v2c0,.1377-.1123.25-.25.25ZM211.77737,6.25003c-.1377,0-.25-.1123-.25-.25v-2c0-.1377.1123-.25.25-.25s.25.1123.25.25v2c0,.1377-.1123.25-.25.25Z"/><path class="uuid-373fc21f-c368-407e-8cc9-d5e3f13fa5e7" d="M211.77737,175.25003c-.1377,0-.25-.1123-.25-.25v-1c0-.1377.1123-.25.25-.25s.25.1123.25.25v1c0,.1377-.1123.25-.25.25Z"/><rect class="uuid-2f5bda25-b96c-4c5d-972c-ad1a363bfae9" y=".16516" width="60" height="175"/></svg>