<svg width="1440" height="1440" xmlns="http://www.w3.org/2000/svg" xmlns:xlink="http://www.w3.org/1999/xlink" overflow="hidden"><defs><clipPath id="clip0"><rect x="0" y="0" width="1440" height="1440"/></clipPath><linearGradient x1="1275.5" y1="208.5" x2="1161.5" y2="208.5" gradientUnits="userSpaceOnUse" spreadMethod="reflect" id="fill1"><stop offset="0" stop-color="#BEF397"/><stop offset="0.5" stop-color="#D5F6C0"/><stop offset="1" stop-color="#EAFAE0"/></linearGradient><linearGradient x1="1301.5" y1="358.5" x2="1148.5" y2="358.5" gradientUnits="userSpaceOnUse" spreadMethod="reflect" id="fill2"><stop offset="0" stop-color="#BEF397"/><stop offset="0.5" stop-color="#D5F6C0"/><stop offset="1" stop-color="#EAFAE0"/></linearGradient><linearGradient x1="1278.5" y1="587" x2="1164.5" y2="587" gradientUnits="userSpaceOnUse" spreadMethod="reflect" id="fill3"><stop offset="0" stop-color="#BEF397"/><stop offset="0.5" stop-color="#D5F6C0"/><stop offset="1" stop-color="#EAFAE0"/></linearGradient><linearGradient x1="1415.5" y1="477" x2="1301.5" y2="477" gradientUnits="userSpaceOnUse" spreadMethod="reflect" id="fill4"><stop offset="0" stop-color="#BEF397"/><stop offset="0.5" stop-color="#D5F6C0"/><stop offset="1" stop-color="#EAFAE0"/></linearGradient><linearGradient x1="1415.5" y1="534" x2="1301.5" y2="534" gradientUnits="userSpaceOnUse" spreadMethod="reflect" id="fill5"><stop offset="0" stop-color="#BEF397"/><stop offset="0.5" stop-color="#D5F6C0"/><stop offset="1" stop-color="#EAFAE0"/></linearGradient><linearGradient x1="1415.5" y1="599" x2="1301.5" y2="599" gradientUnits="userSpaceOnUse" spreadMethod="reflect" id="fill6"><stop offset="0" stop-color="#BEF397"/><stop offset="0.5" stop-color="#D5F6C0"/><stop offset="1" stop-color="#EAFAE0"/></linearGradient><linearGradient x1="1415.5" y1="656" x2="1301.5" y2="656" gradientUnits="userSpaceOnUse" spreadMethod="reflect" id="fill7"><stop offset="0" stop-color="#BEF397"/><stop offset="0.5" stop-color="#D5F6C0"/><stop offset="1" stop-color="#EAFAE0"/></linearGradient><linearGradient x1="453.5" y1="847.5" x2="332.5" y2="847.5" gradientUnits="userSpaceOnUse" spreadMethod="reflect" id="fill8"><stop offset="0" stop-color="#BEF397"/><stop offset="0.5" stop-color="#D5F6C0"/><stop offset="1" stop-color="#EAFAE0"/></linearGradient><linearGradient x1="589.5" y1="738" x2="476.5" y2="738" gradientUnits="userSpaceOnUse" spreadMethod="reflect" id="fill9"><stop offset="0" stop-color="#BEF397"/><stop offset="0.5" stop-color="#D5F6C0"/><stop offset="1" stop-color="#EAFAE0"/></linearGradient><linearGradient x1="651.5" y1="798" x2="476.5" y2="798" gradientUnits="userSpaceOnUse" spreadMethod="reflect" id="fill10"><stop offset="0" stop-color="#BEF397"/><stop offset="0.5" stop-color="#D5F6C0"/><stop offset="1" stop-color="#EAFAE0"/></linearGradient><linearGradient x1="589.5" y1="860" x2="476.5" y2="860" gradientUnits="userSpaceOnUse" spreadMethod="reflect" id="fill11"><stop offset="0" stop-color="#BEF397"/><stop offset="0.5" stop-color="#D5F6C0"/><stop offset="1" stop-color="#EAFAE0"/></linearGradient><linearGradient x1="596.5" y1="917" x2="476.5" y2="917" gradientUnits="userSpaceOnUse" spreadMethod="reflect" id="fill12"><stop offset="0" stop-color="#BEF397"/><stop offset="0.5" stop-color="#D5F6C0"/><stop offset="1" stop-color="#EAFAE0"/></linearGradient><linearGradient x1="1278.5" y1="1044.5" x2="1153.5" y2="1044.5" gradientUnits="userSpaceOnUse" spreadMethod="reflect" id="fill13"><stop offset="0" stop-color="#BEF397"/><stop offset="0.5" stop-color="#D5F6C0"/><stop offset="1" stop-color="#EAFAE0"/></linearGradient><linearGradient x1="1415.5" y1="1022.5" x2="1301.5" y2="1022.5" gradientUnits="userSpaceOnUse" spreadMethod="reflect" id="fill14"><stop offset="0" stop-color="#BEF397"/><stop offset="0.5" stop-color="#D5F6C0"/><stop offset="1" stop-color="#EAFAE0"/></linearGradient><linearGradient x1="1278.5" y1="1117.5" x2="1154.5" y2="1117.5" gradientUnits="userSpaceOnUse" spreadMethod="reflect" id="fill15"><stop offset="0" stop-color="#BEF397"/><stop offset="0.5" stop-color="#D5F6C0"/><stop offset="1" stop-color="#EAFAE0"/></linearGradient></defs><g clip-path="url(#clip0)"><rect x="0" y="0" width="1440" height="1440" fill="#FFFFFF"/><path d="M47.5001 165.453C47.5001 129.58 76.5804 100.5 112.453 100.5L1369.55 100.5C1405.42 100.5 1434.5 129.58 1434.5 165.453L1434.5 1339.55C1434.5 1375.42 1405.42 1404.5 1369.55 1404.5L112.453 1404.5C76.5804 1404.5 47.5001 1375.42 47.5001 1339.55Z" stroke="#92D050" stroke-width="1.33333" stroke-miterlimit="8" fill="none" fill-rule="evenodd"/><path d="M139.5 128.667C139.5 126.366 141.366 124.5 143.667 124.5L210.333 124.5C212.635 124.5 214.5 126.366 214.5 128.667L214.5 145.333C214.5 147.635 212.635 149.5 210.333 149.5L143.667 149.5C141.366 149.5 139.5 147.635 139.5 145.333Z" stroke="#41719C" stroke-width="1.33333" stroke-miterlimit="8" fill="#00B0F0" fill-rule="evenodd"/><text fill="#FFFFFF" font-family="Calibri,Calibri_MSFontService,sans-serif" font-weight="400" font-size="15" transform="translate(162.396 142)">VMS</text><path d="M341.5 128.667C341.5 126.366 343.366 124.5 345.667 124.5L451.333 124.5C453.635 124.5 455.5 126.366 455.5 128.667L455.5 145.333C455.5 147.635 453.635 149.5 451.333 149.5L345.667 149.5C343.366 149.5 341.5 147.635 341.5 145.333Z" stroke="#41719C" stroke-width="1.33333" stroke-miterlimit="8" fill="#92D050" fill-rule="evenodd"/><text fill="#FFFFFF" font-family="Calibri,Calibri_MSFontService,sans-serif" font-weight="400" font-size="15" transform="translate(355.729 142)">Media Service</text><path d="M684.5 120.667C684.5 116.156 688.156 112.5 692.667 112.5L790.333 112.5C794.844 112.5 798.5 116.156 798.5 120.667L798.5 153.333C798.5 157.844 794.844 161.5 790.333 161.5L692.667 161.5C688.156 161.5 684.5 157.844 684.5 153.333Z" stroke="#41719C" stroke-width="1.33333" stroke-miterlimit="8" fill="#92D050" fill-rule="evenodd"/><text fill="#FFFFFF" font-family="Calibri,Calibri_MSFontService,sans-serif" font-weight="400" font-size="15" transform="translate(714.312 133)">Signaling <tspan font-size="15" x="7.16663" y="17">Server</tspan></text><path d="M1161.5 128.667C1161.5 126.366 1163.37 124.5 1165.67 124.5L1271.33 124.5C1273.63 124.5 1275.5 126.366 1275.5 128.667L1275.5 145.333C1275.5 147.635 1273.63 149.5 1271.33 149.5L1165.67 149.5C1163.37 149.5 1161.5 147.635 1161.5 145.333Z" stroke="#41719C" stroke-width="1.33333" stroke-miterlimit="8" fill="#92D050" fill-rule="evenodd"/><text fill="#FFFFFF" font-family="Calibri,Calibri_MSFontService,sans-serif" font-weight="400" font-size="15" transform="translate(1184.81 142)">Web Client</text><path d="M176.5 149.5 178 1370.45" stroke="#000000" stroke-width="0.666667" stroke-miterlimit="8" stroke-dasharray="5.33333 2" fill="none" fill-rule="evenodd"/><path d="M399.5 149.5 401.001 1357.75" stroke="#000000" stroke-width="0.666667" stroke-miterlimit="8" stroke-dasharray="5.33333 2" fill="none" fill-rule="evenodd"/><path d="M0 0 0.000419947 1193.09" stroke="#000000" stroke-width="0.666667" stroke-miterlimit="8" stroke-dasharray="5.33333 2" fill="none" fill-rule="evenodd" transform="matrix(-1 0 0 1 741.5 161.5)"/><path d="M0 0 0.000104987 1220.95" stroke="#000000" stroke-width="0.666667" stroke-miterlimit="8" stroke-dasharray="5.33333 2" fill="none" fill-rule="evenodd" transform="matrix(-1 0 0 1 1218.5 149.5)"/><rect x="1206.5" y="165.5" width="22" height="1074" stroke="#2F528F" stroke-width="1.33333" stroke-miterlimit="8" fill="#92D050"/><rect x="1161.5" y="183.5" width="114" height="50" stroke="#2F528F" stroke-width="1.33333" stroke-miterlimit="8" fill="url(#fill1)"/><path d="M0 0 29.8335 0 40 10.1665 40 25 0 25Z" stroke="#2F528F" stroke-width="1.33333" stroke-miterlimit="8" fill="#92D050" fill-rule="evenodd" transform="matrix(1 0 0 -1 1161.5 208.5)"/><text fill="#FFFFFF" font-family="Calibri,Calibri_MSFontService,sans-serif" font-weight="400" font-size="12" transform="translate(1173.91 198)">ref<tspan fill="#000000" font-size="15" x="28" y="20">onLoad</tspan></text><rect x="730.5" y="245.5" width="22" height="89" stroke="#2F528F" stroke-width="1.33333" stroke-miterlimit="8" fill="#92D050"/><path d="M7.69557e-08-0.333333 448.083-0.33323 448.083 0.333437-7.69557e-08 0.333333ZM446.75-3.9999 454.75 0.000104987 446.75 4.0001Z" transform="matrix(-1 0 0 1 1206.25 244.5)"/><path d="M1.08485e-07-0.333333 315.918-0.333231 315.918 0.333436-1.08485e-07 0.333333ZM314.584-3.9999 322.584 0.000104987 314.584 4.0001Z" transform="matrix(-1 0 0 1 730.084 258.5)"/><rect x="388.5" y="258.5" width="19" height="51" stroke="#2F528F" stroke-width="1.33333" stroke-miterlimit="8" fill="#92D050"/><path d="M398.5 309.167 724.834 309.167 724.834 309.833 398.5 309.833ZM723.5 305.5 731.5 309.5 723.5 313.5Z"/><path d="M751.5 320.167 1199.58 320.167 1199.58 320.833 751.5 320.833ZM1198.25 316.5 1206.25 320.5 1198.25 324.5Z"/><rect x="1148.5" y="334.5" width="153" height="48" stroke="#2F528F" stroke-width="1.33333" stroke-miterlimit="8" fill="url(#fill2)"/><path d="M0 0 45.2402 0 55 9.75982 55 24 0 24Z" stroke="#2F528F" stroke-width="1.33333" stroke-miterlimit="8" fill="#92D050" fill-rule="evenodd" transform="matrix(1 0 0 -1 1148.5 358.5)"/><text fill="#FFFFFF" font-family="Calibri,Calibri_MSFontService,sans-serif" font-weight="400" font-size="12" transform="translate(1162.53 349)">ref<tspan fill="#000000" font-size="15" x="14.4323" y="25">show camera list</tspan></text><rect x="1164.5" y="395.5" width="114" height="383" stroke="#2F528F" stroke-width="1.33333" stroke-miterlimit="8" fill="url(#fill3)"/><path d="M0 0 29.2069 0 41 11.7931 41 29 0 29Z" stroke="#2F528F" stroke-width="1.33333" stroke-miterlimit="8" fill="#92D050" fill-rule="evenodd" transform="matrix(1 0 0 -1 1164.5 424.5)"/><text fill="#FFFFFF" font-family="Calibri,Calibri_MSFontService,sans-serif" font-weight="400" font-size="12" transform="translate(1177.58 409)">ref<tspan fill="#000000" font-size="15" x="-4.51819" y="181">getIceServers</tspan><tspan fill="#000000" font-size="15" x="75.6484" y="181">()</tspan></text><path d="M8.49059e-08-0.333333 405.503-0.33323 405.503 0.333437-8.49059e-08 0.333333ZM404.169-3.9999 412.169 0.000104987 404.169 4.0001Z" transform="matrix(-1 0 0 1 1164.67 409.5)"/><rect x="731.5" y="406.5" width="21" height="86" stroke="#2F528F" stroke-width="1.33333" stroke-miterlimit="8" fill="#92D050"/><path d="M1.08485e-07-0.333333 315.918-0.333231 315.918 0.333436-1.08485e-07 0.333333ZM314.584-3.9999 322.584 0.000104987 314.584 4.0001Z" transform="matrix(-1 0 0 1 732.084 416.5)"/><rect x="390.5" y="416.5" width="19" height="39" stroke="#2F528F" stroke-width="1.33333" stroke-miterlimit="8" fill="#92D050"/><path d="M399.5 455.167 725.085 455.167 725.085 455.833 399.5 455.833ZM723.751 451.5 731.751 455.5 723.751 459.5Z"/><path d="M752.5 465.167 1158 465.167 1158 465.833 752.5 465.833ZM1156.67 461.5 1164.67 465.5 1156.67 469.5Z"/><path d="M1301.5 457.5 1403.84 457.5 1415.5 469.165 1415.5 496.5 1301.5 496.5Z" stroke="#2F528F" stroke-width="1.33333" stroke-miterlimit="8" fill="url(#fill4)" fill-rule="evenodd"/><text font-family="Calibri,Calibri_MSFontService,sans-serif" font-weight="400" font-size="15" transform="translate(1329.97 476)">RTCPeer<tspan font-size="15" x="-13.2467" y="17">Connection()​</tspan></text><path d="M1278.5 476.167 1294.58 476.167 1294.58 476.834 1278.5 476.833ZM1293.25 472.5 1301.25 476.5 1293.25 480.5Z" fill="#4472C4"/><path d="M1358.58 496.5 1358.58 509.655 1285.17 509.655 1285.17 508.988 1358.25 508.988 1357.92 509.322 1357.92 496.5ZM1286.5 513.322 1278.5 509.322 1286.5 505.322Z" fill="#4472C4"/><path d="M1301.5 514.5 1403.84 514.5 1415.5 526.165 1415.5 553.5 1301.5 553.5Z" stroke="#2F528F" stroke-width="1.33333" stroke-miterlimit="8" fill="url(#fill5)" fill-rule="evenodd"/><text font-family="Calibri,Calibri_MSFontService,sans-serif" font-weight="400" font-size="15" transform="translate(1326.89 542)">onTrack<tspan font-size="15" x="47.5" y="0">()</tspan></text><path d="M1278.5 534.167 1294.58 534.167 1294.58 534.834 1278.5 534.833ZM1293.25 530.5 1301.25 534.5 1293.25 538.5Z" fill="#4472C4"/><path d="M1358.58 553.5 1358.58 566.655 1285.17 566.655 1285.17 565.988 1358.25 565.988 1357.92 566.322 1357.92 553.5ZM1286.5 570.322 1278.5 566.322 1286.5 562.322Z" fill="#4472C4"/><path d="M1301.5 579.5 1403.84 579.5 1415.5 591.165 1415.5 618.5 1301.5 618.5Z" stroke="#2F528F" stroke-width="1.33333" stroke-miterlimit="8" fill="url(#fill6)" fill-rule="evenodd"/><text font-family="Calibri,Calibri_MSFontService,sans-serif" font-weight="400" font-size="15" transform="translate(1316.14 606)">createOffer()</text><path d="M1278.5 598.167 1294.58 598.167 1294.58 598.834 1278.5 598.833ZM1293.25 594.5 1301.25 598.5 1293.25 602.5Z" fill="#4472C4"/><path d="M1358.58 618.5 1358.58 631.655 1285.17 631.655 1285.17 630.988 1358.25 630.988 1357.92 631.322 1357.92 618.5ZM1286.5 635.322 1278.5 631.322 1286.5 627.322Z" fill="#4472C4"/><path d="M1301.5 636.5 1403.84 636.5 1415.5 648.165 1415.5 675.5 1301.5 675.5Z" stroke="#2F528F" stroke-width="1.33333" stroke-miterlimit="8" fill="url(#fill7)" fill-rule="evenodd"/><text font-family="Calibri,Calibri_MSFontService,sans-serif" font-weight="400" font-size="15" transform="translate(1312.73 655)">setLocalDescri<tspan font-size="15" x="22.3333" y="17">ption</tspan><tspan font-size="15" x="53.5" y="17">()</tspan></text><path d="M1278.5 655.167 1294.58 655.167 1294.58 655.834 1278.5 655.833ZM1293.25 651.5 1301.25 655.5 1293.25 659.5Z" fill="#4472C4"/><path d="M1358.58 675.5 1358.58 688.655 1285.17 688.655 1285.17 687.988 1358.25 687.988 1357.91 688.322 1357.91 675.5ZM1286.5 692.322 1278.5 688.322 1286.5 684.322Z" fill="#4472C4"/><path d="M8.49063e-08-0.333333 405.501-0.33323 405.501 0.333437-8.49063e-08 0.333333ZM404.167-3.9999 412.167 0.000104987 404.167 4.0001Z" transform="matrix(-1 0 0 1 1164.67 693.5)"/><rect x="731.5" y="693.5" width="22" height="296" stroke="#2F528F" stroke-width="1.33333" stroke-miterlimit="8" fill="#92D050"/><path d="M453.5 976.167 724.834 976.167 724.834 976.833 453.5 976.833ZM723.5 972.5 731.5 976.5 723.5 980.5Z"/><rect x="332.5" y="705.5" width="121" height="284" stroke="#2F528F" stroke-width="1.33333" stroke-miterlimit="8" fill="url(#fill8)"/><path d="M0 0 32.8335 0 43 10.1665 43 25 0 25Z" stroke="#2F528F" stroke-width="1.33333" stroke-miterlimit="8" fill="#92D050" fill-rule="evenodd" transform="matrix(1 0 0 -1 332.5 730.5)"/><text fill="#FFFFFF" font-family="Calibri,Calibri_MSFontService,sans-serif" font-weight="400" font-size="12" transform="translate(345.704 720)">ref<tspan fill="#000000" font-size="15" x="-1.23517" y="126">PeerConnection</tspan><tspan fill="#000000" font-size="15" x="-0.481842" y="143">Manager::call ()</tspan></text><path d="M1.26528e-07-0.333333 269.917-0.333231 269.917 0.333436-1.26528e-07 0.333333ZM268.584-3.9999 276.584 0.000104987 268.584 4.0001Z" transform="matrix(-1 0 0 1 730.084 708.5)"/><path d="M476.5 718.5 577.836 718.5 589.5 730.165 589.5 757.5 476.5 757.5Z" stroke="#2F528F" stroke-width="1.33333" stroke-miterlimit="8" fill="url(#fill9)" fill-rule="evenodd"/><text font-family="Calibri,Calibri_MSFontService,sans-serif" font-weight="400" font-size="15" transform="translate(496.353 737)">CreatePeer<tspan font-size="15" x="-5" y="17">Connection()​</tspan></text><path d="M453.5 737.167 469.582 737.167 469.582 737.834 453.5 737.833ZM468.249 733.5 476.249 737.5 468.249 741.5Z" fill="#4472C4"/><path d="M533.041 757.5 533.041 770.655 460.167 770.655 460.167 769.988 532.708 769.988 532.374 770.322 532.374 757.5ZM461.5 774.322 453.5 770.322 461.5 766.322Z" fill="#4472C4"/><path d="M476.5 775.5 638.041 775.5 651.5 788.959 651.5 820.5 476.5 820.5Z" stroke="#2F528F" stroke-width="1.33333" stroke-miterlimit="8" fill="url(#fill10)" fill-rule="evenodd"/><text font-family="Calibri,Calibri_MSFontService,sans-serif" font-weight="400" font-size="15" transform="translate(497.717 797)">setLocalDescription<tspan font-size="15" x="116" y="0">()</tspan><tspan font-size="15" x="-8.25333" y="17">setRemoteDescription</tspan><tspan font-size="15" x="124.247" y="17">()</tspan></text><path d="M2.9678e-06-0.333333 16.9169-0.333183 16.9168 0.333484-2.9678e-06 0.333333ZM15.5836-3.99986 23.5835 0.000209974 15.5835 4.00014Z" fill="#4472C4" transform="matrix(1 0 0 -1 453.5 798.5)"/><path d="M563.916 820.5 563.916 827.882 460.167 827.882 460.167 827.215 563.583 827.215 563.249 827.548 563.249 820.5ZM461.5 831.548 453.5 827.548 461.5 823.548Z" fill="#4472C4"/><path d="M476.5 840.5 577.836 840.5 589.5 852.165 589.5 879.5 476.5 879.5Z" stroke="#2F528F" stroke-width="1.33333" stroke-miterlimit="8" fill="url(#fill11)" fill-rule="evenodd"/><text font-family="Calibri,Calibri_MSFontService,sans-serif" font-weight="400" font-size="15" transform="translate(489.186 867)">AddStreams<tspan font-size="15" x="72.1667" y="0">()</tspan></text><path d="M453.5 859.167 469.583 859.167 469.583 859.834 453.5 859.833ZM468.249 855.5 476.249 859.5 468.249 863.5Z" fill="#4472C4"/><path d="M533.041 879.5 533.041 892.655 460.167 892.655 460.167 891.989 532.707 891.989 532.374 892.322 532.374 879.5ZM461.5 896.322 453.5 892.322 461.5 888.322Z" fill="#4472C4"/><path d="M476.5 897.5 584.836 897.5 596.5 909.165 596.5 936.5 476.5 936.5Z" stroke="#2F528F" stroke-width="1.33333" stroke-miterlimit="8" fill="url(#fill12)" fill-rule="evenodd"/><text font-family="Calibri,Calibri_MSFontService,sans-serif" font-weight="400" font-size="15" transform="translate(487.405 925)">createAnswer<tspan font-size="15" x="82.6667" y="0">()</tspan></text><path d="M453.5 916.167 469.583 916.167 469.583 916.834 453.5 916.833ZM468.249 912.5 476.249 916.5 468.249 920.5Z" fill="#4472C4"/><path d="M536.51 936.5 536.51 949.655 460.167 949.655 460.167 948.989 536.177 948.989 535.843 949.322 535.843 936.5ZM461.5 953.322 453.5 949.322 461.5 945.322Z" fill="#4472C4"/><path d="M753.5 989.167 1200.17 989.167 1200.17 989.833 753.5 989.833ZM1198.83 985.5 1206.83 989.5 1198.83 993.5Z"/><rect x="1153.5" y="1012.5" width="125" height="63.9999" stroke="#2F528F" stroke-width="1.33333" stroke-miterlimit="8" fill="url(#fill13)"/><path d="M0 0 30.9869 0 44 13.0131 44 32 0 32Z" stroke="#2F528F" stroke-width="1.33333" stroke-miterlimit="8" fill="#92D050" fill-rule="evenodd" transform="matrix(1 0 0 -1 1153.5 1044.5)"/><text fill="#FFFFFF" font-family="Calibri,Calibri_MSFontService,sans-serif" font-weight="400" font-size="12" transform="translate(1166.53 1026)">ref<tspan fill="#000000" font-size="15" x="-4.00745" y="36">onICECandidate</tspan><tspan fill="#000000" font-size="15" x="93.6592" y="36">()</tspan></text><path d="M1301.5 1002.5 1403.54 1002.5 1415.5 1014.46 1415.5 1042.5 1301.5 1042.5Z" stroke="#2F528F" stroke-width="1.33333" stroke-miterlimit="8" fill="url(#fill14)" fill-rule="evenodd"/><text font-family="Calibri,Calibri_MSFontService,sans-serif" font-weight="400" font-size="15" transform="translate(1322.76 1021)">setRemote<tspan font-size="15" x="-6.07996" y="17">Description()</tspan></text><path d="M1278.5 1022.17 1294.58 1022.17 1294.58 1022.83 1278.5 1022.83ZM1293.25 1018.5 1301.25 1022.5 1293.25 1026.5Z" fill="#4472C4"/><path d="M1358.58 1042.5 1358.58 1055.66 1285.17 1055.66 1285.17 1054.99 1358.25 1054.99 1357.91 1055.32 1357.91 1042.5ZM1286.5 1059.32 1278.5 1055.32 1286.5 1051.32Z" fill="#4472C4"/><path d="M8.49059e-08-0.333333 405.503-0.33323 405.503 0.333437-8.49059e-08 0.333333ZM404.169-3.9999 412.169 0.000104987 404.169 4.0001Z" transform="matrix(-1 0 0 1 1164.67 1020.5)"/><rect x="731.5" y="1017.5" width="21" height="125" stroke="#2F528F" stroke-width="1.33333" stroke-miterlimit="8" fill="#92D050"/><rect x="390.5" y="1027.5" width="21" height="212" stroke="#2F528F" stroke-width="1.33333" stroke-miterlimit="8" fill="#92D050"/><path d="M1.08485e-07-0.333333 315.918-0.333231 315.918 0.333436-1.08485e-07 0.333333ZM314.584-3.9999 322.584 0.000104987 314.584 4.0001Z" transform="matrix(-1 0 0 1 732.084 1027.5)"/><rect x="1154.5" y="1092.5" width="124" height="50" stroke="#2F528F" stroke-width="1.33333" stroke-miterlimit="8" fill="url(#fill15)"/><path d="M0 0 33.8335 0 44 10.1665 44 25 0 25Z" stroke="#2F528F" stroke-width="1.33333" stroke-miterlimit="8" fill="#92D050" fill-rule="evenodd" transform="matrix(1 0 0 -1 1154.5 1117.5)"/><text fill="#FFFFFF" font-family="Calibri,Calibri_MSFontService,sans-serif" font-weight="400" font-size="12" transform="translate(1167.12 1107)">ref<tspan fill="#000000" font-size="15" x="-4.59839" y="28">getICECandidate</tspan><tspan fill="#000000" font-size="15" x="96.735" y="28">()</tspan></text><path d="M8.49059e-08-0.333333 405.503-0.33323 405.503 0.333437-8.49059e-08 0.333333ZM404.169-3.9999 412.169 0.000104987 404.169 4.0001Z" transform="matrix(-1 0 0 1 1165.67 1095.5)"/><path d="M1.08993e-07-0.333333 314.415-0.333231 314.415 0.333436-1.08993e-07 0.333333ZM313.081-3.9999 321.081 0.000104987 313.081 4.0001Z" transform="matrix(-1 0 0 1 731.581 1101.5)"/><path d="M411.5 1129.17 724.251 1129.17 724.251 1129.83 411.5 1129.83ZM722.917 1125.5 730.917 1129.5 722.917 1133.5Z"/><path d="M753.5 1142.17 1159 1142.17 1159 1142.83 753.5 1142.83ZM1157.67 1138.5 1165.67 1142.5 1157.67 1146.5Z"/><rect x="167.5" y="897.5" width="21" height="346" stroke="#2F528F" stroke-width="1.33333" stroke-miterlimit="8" fill="#00B0F0"/><path d="M2.31825e-07-0.333333 144.291-0.333233 144.291 0.333434-2.31825e-07 0.333333ZM142.957-3.9999 150.957 0.000104987 142.957 4.0001Z" transform="matrix(-1 0 0 1 339.457 897.5)"/><path d="M188.5 1206.17 383.374 1206.17 383.374 1206.83 188.5 1206.83ZM382.04 1202.5 390.04 1206.5 382.04 1210.5Z"/><path d="M411.5 1239.17 1199.75 1239.17 1199.75 1239.83 411.5 1239.83ZM1198.42 1235.5 1206.42 1239.5 1198.42 1243.5Z"/><text font-family="Calibri,Calibri_MSFontService,sans-serif" font-weight="700" font-size="15" transform="translate(229.665 887)">RTSP Request<tspan font-size="15" x="45.268" y="315">RTSP </tspan><tspan font-size="15" x="29.3547" y="332">Streaming</tspan><tspan font-size="15" x="461.021" y="346">webRTC</tspan><tspan font-size="15" x="514.021" y="346">Streaming (Media Streaming)</tspan><tspan font-size="15" x="699.354" y="-650">/</tspan>api/camera/list<tspan font-size="15" x="289.604" y="-635">/</tspan><tspan font-size="15" x="295.938" y="-635">api</tspan><tspan font-size="15" x="314.604" y="-635">/camera/list</tspan><tspan font-size="15" x="252.021" y="-586">JSON Response (Camera List)</tspan><tspan font-size="15" x="658.981" y="-574">JSON Response (Camera List)</tspan><tspan font-size="15" x="691.28" y="-484">/</tspan><tspan font-size="15" x="697.614" y="-484">api</tspan><tspan font-size="15" x="716.28" y="-484">/</tspan><tspan font-size="15" x="722.614" y="-484">getICEServers</tspan><tspan font-size="15" x="281.831" y="-479">/</tspan><tspan font-size="15" x="288.164" y="-479">api</tspan><tspan font-size="15" x="306.831" y="-479">/</tspan><tspan font-size="15" x="313.164" y="-479">getICEServers</tspan><tspan font-size="15" x="245.472" y="-440">JSON Response (ICE Server List)</tspan><tspan font-size="15" x="655.783" y="-430">JSON Response (ICE Server List)</tspan><tspan font-size="15" x="250.688" y="-188">/</tspan><tspan font-size="15" x="257.021" y="-188">api</tspan><tspan font-size="15" x="275.688" y="-188">/stream/start (SDP Offer)</tspan><tspan font-size="15" x="657.564" y="-203">/</tspan><tspan font-size="15" x="663.897" y="-203">api</tspan><tspan font-size="15" x="682.564" y="-203">/stream/start (SDP Offer)</tspan><tspan font-size="15" x="273.314" y="81">JSON Response (SDP Answer)</tspan><tspan font-size="15" x="658.397" y="93">JSON Response (SDP Answer)</tspan><tspan font-size="15" x="680.314" y="125">/</tspan>api/addICECandidate<tspan font-size="15" x="273.437" y="134">/</tspan><tspan font-size="15" x="279.77" y="134">api</tspan><tspan font-size="15" x="298.437" y="134">/</tspan><tspan font-size="15" x="304.77" y="134">addICECandidate</tspan><tspan font-size="15" x="683.647" y="199">/</tspan>api/getICECandidate<tspan font-size="15" x="273.605" y="207">/</tspan><tspan font-size="15" x="279.938" y="207">api</tspan><tspan font-size="15" x="298.605" y="207">/</tspan><tspan font-size="15" x="304.938" y="207">getICECandidate</tspan><tspan font-size="15" x="240.188" y="234">JSON Response (with Candidate)</tspan><tspan font-size="15" x="648.584" y="246">JSON Response (with Candidate)</tspan></text></g></svg>